HIERARCHY
ROOT hip
{
  OFFSET 0 0 0
  CHANNELS 6 Xposition Yposition Zposition Zrotation Yrotation Xrotation
  JOINT abdomen
  {
    OFFSET 0 20.6881 -0.73152
    CHANNELS 3 Zrotation Xrotation Yrotation
    JOINT chest
    {
      OFFSET 0 11.7043 -0.48768
      CHANNELS 3 Zrotation Xrotation Yrotation
      JOINT neck
      {
        OFFSET 0 22.1894 -2.19456
        CHANNELS 3 Zrotation Xrotation Yrotation
        JOINT head
        {
          OFFSET -0.24384 7.07133 1.2192
          CHANNELS 3 Zrotation Xrotation Yrotation
          JOINT leftEye
          {
            OFFSET 4.14528 8.04674 8.04672
            CHANNELS 3 Zrotation Xrotation Yrotation
            End Site
            {
              OFFSET 1 0 0
            }
          }
          JOINT rightEye
          {
            OFFSET -3.6576 8.04674 8.04672
            CHANNELS 3 Zrotation Xrotation Yrotation
            End Site
            {
              OFFSET 1 0 0
            }
          }
        }
      }
      JOINT rCollar
      {
        OFFSET -2.68224 19.2634 -4.8768
        CHANNELS 3 Zrotation Xrotation Yrotation
        JOINT rShldr
        {
          OFFSET -8.77824 -1.95073 1.46304
          CHANNELS 3 Zrotation Xrotation Yrotation
          JOINT rForeArm
          {
            OFFSET -28.1742 -1.7115 0.48768
            CHANNELS 3 Zrotation Xrotation Yrotation
            JOINT rHand
            {
              OFFSET -22.5879 0.773209 7.07136
              CHANNELS 3 Zrotation Xrotation Yrotation
              JOINT rThumb1
              {
                OFFSET -1.2192 -0.487915 3.41376
                CHANNELS 3 Zrotation Xrotation Yrotation
                JOINT rThumb2
                {
                  OFFSET -3.37035 -0.52449 3.41376
                  CHANNELS 3 Zrotation Xrotation Yrotation
                  End Site
                  {
                    OFFSET -1.78271 -1.18214 1.43049
                  }
                }
              }
              JOINT rIndex1
              {
                OFFSET -7.75947 0.938293 5.60832
                CHANNELS 3 Zrotation Xrotation Yrotation
                JOINT rIndex2
                {
                  OFFSET -2.54057 -0.884171 1.56538
                  CHANNELS 3 Zrotation Xrotation Yrotation
                  End Site
                  {
                    OFFSET -1.62519 -0.234802 1.16502
                  }
                }
              }
              JOINT rMid1
              {
                OFFSET -8.24714 1.18213 3.41376
                CHANNELS 3 Zrotation Xrotation Yrotation
                JOINT rMid2
                {
                  OFFSET -3.10165 -0.590103 1.0647
                  CHANNELS 3 Zrotation Xrotation Yrotation
                  End Site
                  {
                    OFFSET -2.48547 -0.328903 0.83742
                  }
                }
              }
              JOINT rRing1
              {
                OFFSET -8.82822 0.546677 1.51678
                CHANNELS 3 Zrotation Xrotation Yrotation
                JOINT rRing2
                {
                  OFFSET -2.60934 -0.819778 -0.0198488
                  CHANNELS 3 Zrotation Xrotation Yrotation
                  End Site
                  {
                    OFFSET -2.33842 -0.294052 0.168128
                  }
                }
              }
              JOINT rPinky1
              {
                OFFSET -8.27202 -0.0477905 -0.4584
                CHANNELS 3 Zrotation Xrotation Yrotation
                JOINT rPinky2
                {
                  OFFSET -1.82734 -0.647385 -0.700984
                  CHANNELS 3 Zrotation Xrotation Yrotation
                  End Site
                  {
                    OFFSET -1.69225 -0.51767 -0.607171
                  }
                }
              }
            }
          }
        }
      }
      JOINT lCollar
      {
        OFFSET 2.68224 19.2634 -4.8768
        CHANNELS 3 Zrotation Xrotation Yrotation
        JOINT lShldr
        {
          OFFSET 8.77824 -1.95073 1.46304
          CHANNELS 3 Zrotation Xrotation Yrotation
          JOINT lForeArm
          {
            OFFSET 28.1742 -1.7115 0.48768
            CHANNELS 3 Zrotation Xrotation Yrotation
            JOINT lHand
            {
              OFFSET 22.5879 0.773209 7.07136
              CHANNELS 3 Zrotation Xrotation Yrotation
              JOINT lThumb1
              {
                OFFSET 1.2192 -0.487915 3.41376
                CHANNELS 3 Zrotation Xrotation Yrotation
                JOINT lThumb2
                {
                  OFFSET 3.37035 -0.52449 3.41376
                  CHANNELS 3 Zrotation Xrotation Yrotation
                  End Site
                  {
                    OFFSET 1.78271 -1.18214 1.43049
                  }
                }
              }
              JOINT lIndex1
              {
                OFFSET 7.75947 0.938293 5.60832
                CHANNELS 3 Zrotation Xrotation Yrotation
                JOINT lIndex2
                {
                  OFFSET 2.54057 -0.884171 1.56538
                  CHANNELS 3 Zrotation Xrotation Yrotation
                  End Site
                  {
                    OFFSET 1.62519 -0.234802 1.16502
                  }
                }
              }
              JOINT lMid1
              {
                OFFSET 8.24714 1.18213 3.41376
                CHANNELS 3 Zrotation Xrotation Yrotation
                JOINT lMid2
                {
                  OFFSET 3.10165 -0.590103 1.0647
                  CHANNELS 3 Zrotation Xrotation Yrotation
                  End Site
                  {
                    OFFSET 2.48547 -0.328903 0.83742
                  }
                }
              }
              JOINT lRing1
              {
                OFFSET 8.82822 0.546677 1.51678
                CHANNELS 3 Zrotation Xrotation Yrotation
                JOINT lRing2
                {
                  OFFSET 2.60934 -0.819778 -0.0198488
                  CHANNELS 3 Zrotation Xrotation Yrotation
                  End Site
                  {
                    OFFSET 2.33842 -0.294052 0.168128
                  }
                }
              }
              JOINT lPinky1
              {
                OFFSET 8.27202 -0.0477905 -0.4584
                CHANNELS 3 Zrotation Xrotation Yrotation
                JOINT lPinky2
                {
                  OFFSET 1.82734 -0.647385 -0.700984
                  CHANNELS 3 Zrotation Xrotation Yrotation
                  End Site
                  {
                    OFFSET 1.69225 -0.51767 -0.607171
                  }
                }
              }
            }
          }
        }
      }
    }
  }
  JOINT rButtock
  {
    OFFSET -8.77824 4.35084 1.2192
    CHANNELS 3 Zrotation Xrotation Yrotation
    JOINT rThigh
    {
      OFFSET 0 -1.70687 -2.19456
      CHANNELS 3 Zrotation Xrotation Yrotation
      JOINT rShin
      {
        OFFSET 0 -36.8199 0.73152
        CHANNELS 3 Zrotation Xrotation Yrotation
        JOINT rFoot
        {
          OFFSET 0.73152 -45.1104 -5.12064
          CHANNELS 3 Zrotation Xrotation Yrotation
          End Site
          {
            OFFSET -1.1221 -3.69964 12.103
          }
        }
      }
    }
  }
  JOINT lButtock
  {
    OFFSET 8.77824 4.35084 1.2192
    CHANNELS 3 Zrotation Xrotation Yrotation
    JOINT lThigh
    {
      OFFSET 0 -1.70687 -2.19456
      CHANNELS 3 Zrotation Xrotation Yrotation
      JOINT lShin
      {
        OFFSET 0 -36.8199 0.73152
        CHANNELS 3 Zrotation Xrotation Yrotation
        JOINT lFoot
        {
          OFFSET -0.73152 -45.1104 -5.12064
          CHANNELS 3 Zrotation Xrotation Yrotation
          End Site
          {
            OFFSET 1.1221 -3.69964 12.103
          }
        }
      }
    }
  }
}
MOTION
Frames:	6
Frame Time:	0.00833333
-24.8454 64.7255 -23.6358 1.5353 14.7687 17.4529 -8.89012 34.3631 -4.52544 4.41133 -3.86859 -1.90464 -11.4934 4.14821 -2.84808 34.6077 -46.6401 11.7101 -0.0 0.0 0.0 -0.0 0.0 0.0 1.59763e-13 -6.63872e-14 1.21138e-13 69.3778 12.6769 18.7005 -26.2687 -24.1419 57.8449 -0.372427 -17.2617 -2.49809 -1.50084e-09 2.37144e-09 -7.81878e-10 -2.58162e-09 4.08027e-09 -1.36286e-09 -1.50084e-09 2.37145e-09 -7.81887e-10 7.73091 5.47488 0.417314 -1.50084e-09 2.37144e-09 -7.81873e-10 2.90554 0.965183 0.102902 -1.50083e-09 2.37144e-09 -7.81872e-10 10.2786 0.731801 0.0259123 -1.50084e-09 2.37145e-09 -7.81862e-10 2.22167 -0.733487 -0.20892 1.59698e-13 -6.6402e-14 1.21075e-13 -34.7505 26.0045 -72.5929 17.984 -10.6819 -34.6028 -0.00226585 -0.761661 0.10298 -2.93866e-09 -3.33331e-09 -6.89867e-10 -5.0809e-09 -5.7526e-09 -1.19226e-09 -2.93866e-09 -3.33331e-09 -6.89859e-10 -7.73091 5.47488 -0.417314 -2.93866e-09 -3.33331e-09 -6.89867e-10 -2.90554 0.965183 -0.102902 -2.93866e-09 -3.33331e-09 -6.89874e-10 -10.2786 0.731801 -0.0259123 -2.93865e-09 -3.33331e-09 -6.89887e-10 -2.22167 -0.733487 0.20892 -2.03217e-16 0.0 -3.88251e-19 -17.3504 -21.4823 -1.06789 -1.9265 70.4426 2.97073 0.223853 -5.24535 -3.67021 2.03217e-16 0.0 3.88251e-19 17.3938 -41.0266 24.6751 1.40357 62.9469 -1.25036 -6.23552 -14.3748 -17.2459
-23.2325 64.7666 -22.3023 1.3453 15.9321 17.314 -8.47058 34.211 -4.62414 4.49026 -3.98535 -1.87945 -11.368 4.49733 -2.84022 33.4796 -45.2956 10.6454 -0.0 0.0 0.0 -0.0 0.0 0.0 6.23776e-14 -7.60275e-14 2.62173e-13 68.701 15.3755 20.5554 -26.0276 -23.5042 56.8469 -0.245735 -14.0009 -2.00511 -1.79247e-09 3.49633e-09 -1.46964e-09 -3.08089e-09 6.01514e-09 -2.55128e-09 -1.79247e-09 3.49634e-09 -1.46964e-09 7.73091 5.47488 0.417314 -1.79247e-09 3.49634e-09 -1.46963e-09 2.90554 0.965183 0.102902 -1.79247e-09 3.49634e-09 -1.46963e-09 10.2786 0.731801 0.0259123 -1.79247e-09 3.49634e-09 -1.46962e-09 2.22167 -0.733487 -0.20892 6.22456e-14 -7.60443e-14 2.62125e-13 -40.7965 26.0327 -69.9337 16.0793 -8.84534 -29.8394 0.0285193 -3.89636 0.545943 -4.07753e-09 -6.43797e-09 -1.15154e-09 -7.04988e-09 -1.11312e-08 -1.99395e-09 -4.07753e-09 -6.43797e-09 -1.15154e-09 -7.73091 5.47488 -0.417314 -4.07753e-09 -6.43797e-09 -1.15154e-09 -2.90554 0.965183 -0.102902 -4.07753e-09 -6.43797e-09 -1.15155e-09 -10.2786 0.731801 -0.0259123 -4.07753e-09 -6.43797e-09 -1.15157e-09 -2.22167 -0.733487 0.20892 -2.03217e-16 0.0 -3.88251e-19 -16.9764 -24.4026 -2.36895 -2.54381 73.9014 3.58722 -0.186118 -6.08027 -5.92211 2.03217e-16 0.0 3.88251e-19 15.628 -39.5026 23.3157 1.34275 62.2145 -1.18803 -6.37649 -16.0799 -16.743
-21.7731 64.8394 -20.8182 0.6964 16.1204 16.9892 -8.15176 33.9866 -4.74387 4.54063 -4.11055 -1.86583 -11.2154 4.56881 -2.59937 31.9512 -43.519 9.9403 -0.0 0.0 0.0 -0.0 0.0 0.0 6.29074e-14 -7.95057e-14 2.48083e-13 68.1134 17.9844 22.434 -25.7907 -22.9092 55.9149 -0.142104 -10.6849 -1.5195 -1.37144e-09 3.52376e-09 -1.98489e-09 -2.35071e-09 6.06195e-09 -3.44324e-09 -1.37144e-09 3.52377e-09 -1.98489e-09 7.73091 5.47488 0.417314 -1.37144e-09 3.52377e-09 -1.98488e-09 2.90554 0.965183 0.102902 -1.37144e-09 3.52377e-09 -1.98488e-09 10.2786 0.731801 0.0259123 -1.37145e-09 3.52377e-09 -1.98487e-09 2.22167 -0.733487 -0.20892 6.27288e-14 -7.9524e-14 2.48034e-13 -47.1067 25.6733 -66.563 14.1872 -7.10644 -25.9314 0.0268033 -4.66832 0.65756 -4.23553e-09 -7.43312e-09 -1.15107e-09 -7.32156e-09 -1.28579e-08 -1.99846e-09 -4.23553e-09 -7.43312e-09 -1.15107e-09 -7.73091 5.47488 -0.417314 -4.23553e-09 -7.43312e-09 -1.15107e-09 -2.90554 0.965183 -0.102902 -4.23553e-09 -7.43312e-09 -1.15108e-09 -10.2786 0.731801 -0.0259123 -4.23552e-09 -7.43312e-09 -1.1511e-09 -2.22167 -0.733487 0.20892 -2.03217e-16 0.0 -3.88251e-19 -16.651 -27.4659 -3.6724 -3.31689 76.812 4.36212 -0.680073 -6.91021 -8.03211 2.03217e-16 0.0 3.88251e-19 13.9443 -37.8395 22.0837 1.27875 61.4482 -1.158 -6.39069 -17.5299 -16.1867
-20.273 64.8797 -19.2956 0.042 16.3958 16.6406 -7.93935 33.6302 -4.94872 4.54526 -4.26131 -1.88102 -11.0186 4.11886 -1.94804 29.5358 -40.815 9.72282 -0.0 0.0 0.0 -0.0 0.0 0.0 2.46323e-13 -7.49334e-14 -4.49878e-14 67.7483 20.5656 24.3674 -25.562 -22.3606 55.0057 -0.0457564 -7.07101 -1.0 3.36129e-10 1.68993e-09 -2.31741e-09 5.99757e-10 2.90636e-09 -4.02264e-09 3.36131e-10 1.68993e-09 -2.31741e-09 7.73091 5.47488 0.417314 3.36126e-10 1.68993e-09 -2.3174e-09 2.90554 0.965183 0.102902 3.36129e-10 1.68993e-09 -2.3174e-09 10.2786 0.731801 0.0259123 3.36125e-10 1.68994e-09 -2.31738e-09 2.22167 -0.733487 -0.20892 2.46123e-13 -7.49521e-14 -4.50632e-14 -54.3186 24.3213 -62.0129 12.4716 -5.64132 -22.9248 -0.0687366 -1.25263 0.179909 -2.78361e-09 -4.92989e-09 -3.42601e-10 -4.80677e-09 -8.52861e-09 -6.10769e-10 -2.78361e-09 -4.92989e-09 -3.42593e-10 -7.73091 5.47488 -0.417314 -2.78361e-09 -4.92989e-09 -3.426e-10 -2.90554 0.965183 -0.102902 -2.78361e-09 -4.92989e-09 -3.42608e-10 -10.2786 0.731801 -0.0259123 -2.7836e-09 -4.92989e-09 -3.4262e-10 -2.22167 -0.733487 0.20892 -2.03217e-16 0.0 -3.88251e-19 -16.3728 -30.7775 -5.07253 -4.25377 79.1837 5.30913 -1.30971 -7.80476 -10.1862 2.03217e-16 0.0 3.88251e-19 12.4328 -36.057 21.0722 1.20447 60.6603 -1.16116 -6.27328 -18.6989 -15.5745
-18.6852 64.9166 -17.7228 -0.375 16.6159 16.3723 -7.77261 33.1303 -5.2344 4.51314 -4.46062 -1.91767 -10.7621 3.28179 -0.970454 26.3549 -37.3272 9.84407 -0.0 0.0 0.0 -0.0 0.0 0.0 5.46901e-13 -6.40003e-14 -5.21173e-13 67.4378 23.1592 26.4252 -25.3172 -21.7974 54.0612 0.0168723 -3.17472 -0.447376 2.94603e-09 -1.35903e-09 -2.48833e-09 5.10599e-09 -2.33776e-09 -4.32501e-09 2.94603e-09 -1.35903e-09 -2.48833e-09 7.73091 5.47488 0.417314 2.94603e-09 -1.35903e-09 -2.48833e-09 2.90554 0.965183 0.102902 2.94603e-09 -1.35903e-09 -2.48832e-09 10.2786 0.731801 0.0259123 2.94603e-09 -1.35903e-09 -2.48831e-09 2.22167 -0.733487 -0.20892 5.46693e-13 -6.40187e-14 -5.21291e-13 -62.0059 21.5986 -56.5955 11.222 -4.79447 -20.469 -0.0808943 5.13623 -0.713783 -2.57485e-10 -9.05136e-11 1.04002e-09 -4.32152e-10 -1.5707e-10 1.76611e-09 -2.57487e-10 -9.05165e-11 1.04003e-09 -7.73091 5.47488 -0.417314 -2.57483e-10 -9.0516e-11 1.04002e-09 -2.90554 0.965183 -0.102902 -2.57485e-10 -9.05156e-11 1.04002e-09 -10.2786 0.731801 -0.0259123 -2.57478e-10 -9.05109e-11 1.04001e-09 -2.22167 -0.733487 0.20892 -2.03217e-16 0.0 -3.88251e-19 -16.2785 -34.3198 -6.73141 -5.40266 81.1331 6.47342 -2.09998 -8.62117 -12.7054 2.03217e-16 0.0 3.88251e-19 11.0525 -34.1031 20.2841 1.11442 59.774 -1.18253 -6.03805 -19.7581 -14.8431
-17.0332 64.8984 -16.0977 -0.5325 16.6374 16.2007 -7.68887 32.63 -5.45782 4.47585 -4.65273 -1.94259 -10.4671 2.5036 -0.00456522 23.2798 -34.0913 10.0676 -0.0 0.0 0.0 -0.0 0.0 0.0 8.2275e-13 -4.96878e-14 -9.73698e-13 67.0119 25.5768 28.5206 -25.0816 -21.2749 53.2065 0.0228778 0.466947 0.0655517 5.45519e-09 -4.38918e-09 -2.5048e-09 9.43701e-09 -7.54852e-09 -4.35989e-09 5.45519e-09 -4.38918e-09 -2.50481e-09 7.73091 5.47488 0.417314 5.45519e-09 -4.38919e-09 -2.5048e-09 2.90554 0.965183 0.102902 5.45519e-09 -4.38919e-09 -2.5048e-09 10.2786 0.731801 0.0259123 5.45519e-09 -4.38918e-09 -2.50479e-09 2.22167 -0.733487 -0.20892 8.22546e-13 -4.97059e-14 -9.73862e-13 -68.3711 18.1933 -51.5754 10.362 -4.33317 -18.5918 0.102539 11.299 -1.60204 2.32929e-09 4.83172e-09 2.394e-09 4.04662e-09 8.35807e-09 4.09562e-09 2.32928e-09 4.83171e-09 2.39401e-09 -7.73091 5.47488 -0.417314 2.32929e-09 4.83171e-09 2.394e-09 -2.90554 0.965183 -0.102902 2.32928e-09 4.83171e-09 2.394e-09 -10.2786 0.731801 -0.0259123 2.32929e-09 4.83172e-09 2.39399e-09 -2.22167 -0.733487 0.20892 -2.03217e-16 0.0 -3.88251e-19 -16.3645 -37.8492 -8.42212 -6.62821 82.5526 7.70877 -2.89364 -9.30255 -14.932 2.03217e-16 0.0 3.88251e-19 9.61083 -31.9913 19.5032 1.01924 58.8194 -1.22326 -5.69598 -20.628 -14.0262
